<svg width="500" height="500" viewBox="0 0 500 500" fill="none" xmlns="http://www.w3.org/2000/svg">
<rect width="500" height="500" fill="white"/>
<path d="M 215.4 170.8 C 215.4 199.9 191.8 223.5 162.8 223.5 C 133.7 223.5 110.1 199.9 110.1 170.8 C 110.1 141.7 133.7 118.1 162.8 118.1 C 191.8 118.1 215.4 141.7 215.4 170.8 Z" fill="url(#paint0_linear)"/>
<path fill-rule="evenodd" clip-rule="evenodd" d="M 274.4 325.7 C 250.1 325.7 230.5 306 230.5 281.8 C 230.5 257.5 250.1 237.9 274.4 237.9 C 288.7 237.9 301.5 244.8 309.5 255.4 V 237.9 H 318.2 V 325.7 H 309.5 V 308.1 C 301.5 318.8 288.7 325.7 274.4 325.7 Z M 309.5 281.8 C 309.5 262.4 293.8 246.7 274.4 246.7 C 255 246.7 239.3 262.4 239.3 281.8 C 239.3 301.2 255 316.9 274.4 316.9 C 293.8 316.9 309.5 301.2 309.5 281.8 Z" fill="url(#paint1_linear)"/>
<path d="M 75 170.8 C 75 122.3 114.3 83 162.8 83 C 211.2 83 250.5 122.3 250.5 170.8 C 250.5 219.3 211.2 258.6 162.8 258.6 C 124 258.6 92.5 290.1 92.5 328.8 H 373.4 V 284.2 C 351.2 282 333.9 263.3 333.9 240.5 H 342.6 C 342.6 259.9 358.4 275.6 377.7 275.6 C 397.1 275.6 412.8 259.9 412.8 240.5 H 421.6 C 421.6 263.3 404.3 282 382.1 284.2 V 328.8 H 426 V 346.4 H 382.1 V 373.1 C 382.1 397.3 362.5 417 338.3 417 C 314 417 294.4 397.3 294.4 373.1 H 303.1 C 303.1 392.5 318.9 408.2 338.3 408.2 C 357.6 408.2 373.4 392.5 373.4 373.1 V 346.4 H 75 V 328.8 C 75 280.4 114.3 241 162.8 241 C 201.5 241 232.9 209.6 232.9 170.8 C 232.9 132 201.5 100.6 162.8 100.6 C 124 100.6 92.5 132 92.5 170.8 H 75 Z" fill="url(#paint2_linear)"/>
<defs>
<linearGradient id="paint0_linear" x1="250.5" y1="83" x2="250.5" y2="417" gradientUnits="userSpaceOnUse">
<stop stop-color="#80deea"/>
<stop offset="1" stop-color="#971cb5" stop-opacity="0.5"/>
</linearGradient>
<linearGradient id="paint1_linear" x1="250.5" y1="83" x2="250.5" y2="417" gradientUnits="userSpaceOnUse">
<stop stop-color="#80deea"/>
<stop offset="1" stop-color="#971cb5" stop-opacity="0.5"/>
</linearGradient>
<linearGradient id="paint2_linear" x1="250.5" y1="83" x2="250.5" y2="417" gradientUnits="userSpaceOnUse">
<stop stop-color="#80deea"/>
<stop offset="1" stop-color="#971cb5" stop-opacity="0.5"/>
</linearGradient>
</defs>
</svg>
