<svg width="133" height="127" viewBox="0 0 133 127" fill="none" xmlns="http://www.w3.org/2000/svg">
<path d="M53.2 33.3859C53.2 44.449 44.2681 53.4175 33.25 53.4175C22.2319 53.4175 13.3 44.449 13.3 33.3859C13.3 22.3228 22.2319 13.3544 33.25 13.3544C44.2681 13.3544 53.2 22.3228 53.2 33.3859Z" fill="white" style="mix-blend-mode:overlay"/>
<path d="M53.2 33.3859C53.2 44.449 44.2681 53.4175 33.25 53.4175C22.2319 53.4175 13.3 44.449 13.3 33.3859C13.3 22.3228 22.2319 13.3544 33.25 13.3544C44.2681 13.3544 53.2 22.3228 53.2 33.3859Z" fill="white" style="mix-blend-mode:overlay"/>
<path fill-rule="evenodd" clip-rule="evenodd" d="M75.544 92.2787C66.3623 92.2787 58.919 84.805 58.919 75.5857C58.919 66.3664 66.3623 58.8927 75.544 58.8927C80.9824 58.8927 85.8108 61.5147 88.844 65.5683V58.8927H92.169V92.2787H88.844V85.6031C85.8108 89.6567 80.9824 92.2787 75.544 92.2787ZM88.844 75.5857C88.844 68.2103 82.8894 62.2313 75.544 62.2313C68.1986 62.2313 62.244 68.2103 62.244 75.5857C62.244 82.9611 68.1986 88.9401 75.544 88.9401C82.8894 88.9401 88.844 82.9611 88.844 75.5857Z" fill="white" style="mix-blend-mode:overlay"/>
<path fill-rule="evenodd" clip-rule="evenodd" d="M75.544 92.2787C66.3623 92.2787 58.919 84.805 58.919 75.5857C58.919 66.3664 66.3623 58.8927 75.544 58.8927C80.9824 58.8927 85.8108 61.5147 88.844 65.5683V58.8927H92.169V92.2787H88.844V85.6031C85.8108 89.6567 80.9824 92.2787 75.544 92.2787ZM88.844 75.5857C88.844 68.2103 82.8894 62.2313 75.544 62.2313C68.1986 62.2313 62.244 68.2103 62.244 75.5857C62.244 82.9611 68.1986 88.9401 75.544 88.9401C82.8894 88.9401 88.844 82.9611 88.844 75.5857Z" fill="white" style="mix-blend-mode:overlay"/>
<path d="M0 33.3859C0 14.9474 14.8865 0 33.25 0C51.6135 0 66.5 14.9474 66.5 33.3859C66.5 51.8244 51.6135 66.7718 33.25 66.7718C18.5592 66.7718 6.65 78.7297 6.65 93.4805H113.05V76.5049C104.649 75.6673 98.0875 68.5502 98.0875 59.8943H101.413C101.413 67.2697 107.367 73.2487 114.713 73.2487C122.058 73.2487 128.013 67.2697 128.013 59.8943H131.338C131.338 68.5502 124.776 75.6673 116.375 76.5049V93.4805H133V100.158H116.375V110.307C116.375 119.526 108.932 127 99.75 127C90.5683 127 83.125 119.526 83.125 110.307H86.45C86.45 117.682 92.4046 123.661 99.75 123.661C107.095 123.661 113.05 117.682 113.05 110.307V100.158H0V93.4805C0 75.042 14.8865 60.0946 33.25 60.0946C47.9408 60.0946 59.85 48.1367 59.85 33.3859C59.85 18.6351 47.9408 6.67718 33.25 6.67718C18.5592 6.67718 6.65 18.6351 6.65 33.3859H0Z" fill="white" style="mix-blend-mode:overlay"/>
<path d="M0 33.3859C0 14.9474 14.8865 0 33.25 0C51.6135 0 66.5 14.9474 66.5 33.3859C66.5 51.8244 51.6135 66.7718 33.25 66.7718C18.5592 66.7718 6.65 78.7297 6.65 93.4805H113.05V76.5049C104.649 75.6673 98.0875 68.5502 98.0875 59.8943H101.413C101.413 67.2697 107.367 73.2487 114.713 73.2487C122.058 73.2487 128.013 67.2697 128.013 59.8943H131.338C131.338 68.5502 124.776 75.6673 116.375 76.5049V93.4805H133V100.158H116.375V110.307C116.375 119.526 108.932 127 99.75 127C90.5683 127 83.125 119.526 83.125 110.307H86.45C86.45 117.682 92.4046 123.661 99.75 123.661C107.095 123.661 113.05 117.682 113.05 110.307V100.158H0V93.4805C0 75.042 14.8865 60.0946 33.25 60.0946C47.9408 60.0946 59.85 48.1367 59.85 33.3859C59.85 18.6351 47.9408 6.67718 33.25 6.67718C18.5592 6.67718 6.65 18.6351 6.65 33.3859H0Z" fill="white" style="mix-blend-mode:overlay"/>
</svg>
