<svg width="500" height="500" viewBox="0 0 500 500" fill="none" xmlns="http://www.w3.org/2000/svg">
<path fill-rule="evenodd" clip-rule="evenodd" d="M50 0C22.3858 0 0 22.3858 0 50V450C0 477.614 22.3858 500 50 500H450C477.614 500 500 477.614 500 450V50C500 22.3858 477.614 0 450 0H50Z" fill="url(#paint0_linear)"/>
<path d="M214.8 171.052C214.8 200.23 191.161 223.884 162 223.884C132.839 223.884 109.2 200.23 109.2 171.052C109.2 141.874 132.839 118.221 162 118.221C191.161 118.221 214.8 141.874 214.8 171.052Z" fill="white"/>
<path fill-rule="evenodd" clip-rule="evenodd" d="M273.936 326.377C249.635 326.377 229.936 306.666 229.936 282.351C229.936 258.036 249.635 238.325 273.936 238.325C288.329 238.325 301.108 245.24 309.136 255.931V238.325H317.936V326.377H309.136V308.771C301.108 319.462 288.329 326.377 273.936 326.377ZM309.136 282.351C309.136 262.899 293.376 247.13 273.936 247.13C254.496 247.13 238.736 262.899 238.736 282.351C238.736 301.803 254.496 317.572 273.936 317.572C293.376 317.572 309.136 301.803 309.136 282.351Z" fill="white"/>
<path d="M74 171.052C74 122.422 113.399 83 162 83C210.601 83 250 122.422 250 171.052C250 219.682 210.601 259.105 162 259.105C123.119 259.105 91.6 290.643 91.6 329.547H373.2V284.775C350.965 282.566 333.6 263.795 333.6 240.966H342.4C342.4 260.418 358.16 276.187 377.6 276.187C397.04 276.187 412.8 260.418 412.8 240.966H421.6C421.6 263.795 404.235 282.566 382 284.775V329.547H426V347.157H382V373.925C382 398.24 362.301 417.952 338 417.952C313.699 417.952 294 398.24 294 373.925H302.8C302.8 393.377 318.56 409.146 338 409.146C357.44 409.146 373.2 393.377 373.2 373.925V347.157H74V329.547C74 280.917 113.399 241.494 162 241.494C200.881 241.494 232.4 209.956 232.4 171.052C232.4 132.148 200.881 100.61 162 100.61C123.119 100.61 91.6 132.148 91.6 171.052H74Z" fill="white"/>
<defs>
<linearGradient id="paint0_linear" x1="0" y1="0" x2="500" y2="500" gradientUnits="userSpaceOnUse">
<stop stop-color="#80DEEA"/>
<stop offset="1" stop-color="#971CB5" stop-opacity="0.5"/>
</linearGradient>
</defs>
</svg>
